<svg id="Layer_1" data-name="Layer 1" xmlns="http://www.w3.org/2000/svg" viewBox="0 0 48 20.82"><defs><style>.cls-1{fill:#ed1c24;}</style></defs><g id="Logo"><path d="M9.93,34.41A9.38,9.38,0,0,1,2.85,31,11.37,11.37,0,0,1,0,23.8a10.45,10.45,0,0,1,2.93-6.89,10.25,10.25,0,0,1,7.52-3.32,10.83,10.83,0,0,1,6.94,2.49,12,12,0,0,1,2.45,2.65.15.15,0,0,1,0,.2l-.08,0a.13.13,0,0,1-.12-.07l0,0a11.52,11.52,0,0,0-2.52-2.68,10.7,10.7,0,0,0-6.61-2.29A9.93,9.93,0,0,0,3,17.28,10.13,10.13,0,0,0,.29,23.8a11.2,11.2,0,0,0,2.45,6.69,9.13,9.13,0,0,0,7.19,3.63c2.56,0,5.05-1.11,7.62-3.38a54.5,54.5,0,0,0,5.84-6.5C27.63,19,32,13.59,38.35,13.59c4.07,0,6.91,1.55,8.45,4.61A12.7,12.7,0,0,1,48,24a12.51,12.51,0,0,1-2.07,6.46,8,8,0,0,1-7,3.67A12.89,12.89,0,0,1,28.7,28.91l-.21-.25-.08-.09-.08-.08a.14.14,0,0,1,0-.18.13.13,0,0,1,.11,0,.14.14,0,0,1,.09,0,3.69,3.69,0,0,1,.38.42A12.8,12.8,0,0,0,39,33.8a7.75,7.75,0,0,0,7.23-4.34A13.35,13.35,0,0,0,47.72,24a12.78,12.78,0,0,0-1.17-5.67c-1.86-3.68-5.49-4.45-8.2-4.45-6.21,0-10.54,5.35-14.73,10.53S15.53,34.41,9.93,34.41Z" transform="translate(0 -13.59)"/><circle class="cls-1" cx="5.77" cy="16.71" r="2.27"/></g></svg>