<svg id="Layer_1" data-name="Layer 1" xmlns="http://www.w3.org/2000/svg" viewBox="0 0 96.25 96.25"><defs><style>.cls-1{fill:#fff;stroke:#000;stroke-miterlimit:10;stroke-width:0.25px;}.cls-2{fill:#ed1c24;}</style></defs><rect class="cls-1" x="0.13" y="0.13" width="96" height="96" rx="6.98"/><g id="Logo"><path d="M23,66.51a16.7,16.7,0,0,1-12.59-6A20.2,20.2,0,0,1,5.32,47.65a18.54,18.54,0,0,1,5.22-12.26,18.23,18.23,0,0,1,13.36-5.9,19.3,19.3,0,0,1,12.35,4.42,21.41,21.41,0,0,1,4.36,4.72.26.26,0,0,1-.09.35.19.19,0,0,1-.12,0,.21.21,0,0,1-.22-.12l0-.07a20.08,20.08,0,0,0-4.47-4.76A19.06,19.06,0,0,0,23.9,30a17.68,17.68,0,0,0-13.23,6,18.07,18.07,0,0,0-4.84,11.6A19.87,19.87,0,0,0,10.2,59.54,16.24,16.24,0,0,0,23,66c4.55,0,9-2,13.55-6A96,96,0,0,0,46.92,48.42c7.53-9.3,15.31-18.93,26.59-18.93,7.24,0,12.3,2.76,15,8.19a22.69,22.69,0,0,1,2.14,10.25A22.27,22.27,0,0,1,87,59.41a14.14,14.14,0,0,1-12.36,6.53c-10.61,0-16.18-6.68-18.29-9.21L56,56.28l-.14-.15L55.7,56a.24.24,0,0,1,0-.33.25.25,0,0,1,.2-.09.27.27,0,0,1,.16.06,7.82,7.82,0,0,1,.67.75c1.86,2.25,7.52,9.05,17.91,9.05A13.77,13.77,0,0,0,87.49,57.7,23.57,23.57,0,0,0,90.17,48a22.79,22.79,0,0,0-2.08-10.09C84.79,31.37,78.34,30,73.51,30c-11,0-18.74,9.53-26.19,18.74S32.94,66.51,23,66.51Z" transform="translate(0.13 0.12)"/><circle class="cls-2" cx="15.7" cy="59.34" r="4.03"/></g></svg>